<?xml version="1.0" encoding="UTF-8"?><svg id="Camada_2" xmlns="http://www.w3.org/2000/svg" viewBox="0 0 298.34 63.18"><defs><style>.cls-1{fill:#fff;}.cls-2{fill:#c2012e;}.cls-3{fill:#f3d332;}.cls-4{fill:#213366;}</style></defs><g id="Camada_1-2"><g><g><path class="cls-1" d="M80.02,41.48c-2.3,2.12-5.13,3.18-8.47,3.18s-6.17-1.05-8.47-3.15c-2.3-2.1-3.45-4.84-3.45-8.22V16.42h5.92v16.6c0,1.8,.58,3.28,1.74,4.44,1.16,1.16,2.58,1.74,4.27,1.74s3.1-.58,4.25-1.74c1.14-1.16,1.72-2.64,1.72-4.44V16.42h5.96v16.86c0,3.35-1.15,6.08-3.45,8.19Z"/><path class="cls-1" d="M89.05,44.23V16.42h6.56l7.26,10.93c.59,.88,1.27,1.92,2.06,3.1,.79,1.18,1.43,2.15,1.92,2.89l.79,1.18V16.42h6.01v27.8h-6.35l-6.97-10.4c-.75-1.12-1.57-2.34-2.46-3.67-.89-1.33-1.6-2.39-2.12-3.17l-.68-1.16v18.41h-6.01Z"/><path class="cls-1" d="M119.64,44.23V16.42h6.01v27.8h-6.01Z"/><path class="cls-1" d="M131.66,44.23V16.42h6.56l7.26,10.93c.59,.88,1.27,1.92,2.06,3.1,.79,1.18,1.43,2.15,1.92,2.89l.79,1.18V16.42h6.01v27.8h-6.35l-6.97-10.4c-.75-1.12-1.57-2.34-2.46-3.67-.89-1.33-1.6-2.39-2.12-3.17l-.68-1.16v18.41h-6.01Z"/><path class="cls-1" d="M159.46,44.23l12.04-27.8h6.03l11.72,27.8h-5.76l-1.84-4.42h-14.1l-1.9,4.42h-6.18Zm10.11-9.14h10.1l-2.17-5.19-2.97-7.13c-.98,2.86-1.9,5.27-2.76,7.21l-2.2,5.11Z"/><path class="cls-1" d="M191.55,40.88l2.15-4.63c2.86,2.06,5.92,3.09,9.18,3.09,1.46,0,2.72-.32,3.78-.97,1.06-.64,1.59-1.44,1.59-2.38s-.45-1.62-1.35-2.1c-.9-.49-2.17-.9-3.8-1.24-1.2-.29-2.24-.55-3.11-.79-.87-.24-1.81-.6-2.81-1.07-1-.47-1.82-.99-2.45-1.57-.63-.57-1.16-1.3-1.59-2.19-.43-.89-.64-1.89-.64-3,0-2.55,1.02-4.52,3.05-5.92,2.03-1.4,4.48-2.1,7.34-2.1,3.8,0,7.19,.99,10.17,2.96l-2.19,4.63c-2.46-1.52-5.12-2.27-7.98-2.27-1.03,0-2.01,.2-2.94,.6-.93,.4-1.39,1.09-1.39,2.06,0,.83,.41,1.47,1.24,1.91,.83,.44,2.13,.85,3.9,1.22,7.06,1.57,10.6,4.53,10.6,8.88,0,2.8-1.14,4.95-3.41,6.44-2.27,1.49-4.96,2.23-8.04,2.23-4.49,0-8.25-1.26-11.28-3.78Z"/><path class="cls-1" d="M217.72,40.88l2.15-4.63c2.86,2.06,5.92,3.09,9.18,3.09,1.46,0,2.72-.32,3.78-.97,1.06-.64,1.59-1.44,1.59-2.38s-.45-1.62-1.35-2.1c-.9-.49-2.17-.9-3.8-1.24-1.2-.29-2.24-.55-3.11-.79-.87-.24-1.81-.6-2.81-1.07-1-.47-1.82-.99-2.45-1.57-.63-.57-1.16-1.3-1.59-2.19-.43-.89-.64-1.89-.64-3,0-2.55,1.02-4.52,3.05-5.92,2.03-1.4,4.48-2.1,7.34-2.1,3.8,0,7.19,.99,10.17,2.96l-2.19,4.63c-2.46-1.52-5.12-2.27-7.98-2.27-1.03,0-2.01,.2-2.94,.6-.93,.4-1.39,1.09-1.39,2.06,0,.83,.41,1.47,1.24,1.91,.83,.44,2.13,.85,3.9,1.22,7.06,1.57,10.6,4.53,10.6,8.88,0,2.8-1.14,4.95-3.41,6.44-2.27,1.49-4.96,2.23-8.04,2.23-4.49,0-8.25-1.26-11.28-3.78Z"/><path class="cls-1" d="M242.39,44.23l12.04-27.8h6.03l11.72,27.8h-5.76l-1.84-4.42h-14.1l-1.9,4.42h-6.18Zm10.11-9.14h10.1l-2.17-5.19-2.97-7.13c-.98,2.86-1.9,5.27-2.76,7.21l-2.2,5.11Z"/><path class="cls-1" d="M294.89,41.48c-2.3,2.12-5.13,3.18-8.47,3.18s-6.17-1.05-8.47-3.15c-2.3-2.1-3.45-4.84-3.45-8.22V16.42h5.92v16.6c0,1.8,.58,3.28,1.74,4.44,1.16,1.16,2.58,1.74,4.27,1.74s3.1-.58,4.25-1.74c1.14-1.16,1.72-2.64,1.72-4.44V16.42h5.96v16.86c0,3.35-1.15,6.08-3.45,8.19Z"/></g><g><path class="cls-4" d="M1.99,12.34V45.9c0,1.24,.26,2.47,.76,3.6h0c1.4,3.17,5.88,5.26,9.28,5.91,6.85,1.32,10.02,2.34,11.33,4.25,1.32-1.92,4.48-2.94,11.33-4.25,3.4-.65,7.88-2.74,9.28-5.91h0c.5-1.14,.76-2.36,.76-3.6V12.34H1.99Z"/><path class="cls-1" d="M45.4,1.32V45.9c0,1.34-.27,2.65-.82,3.87-.69,1.57-2.13,3.02-4.16,4.2-1.66,.96-3.7,1.72-5.6,2.09-7.04,1.35-9.8,2.36-10.91,3.98l-.55,.8-.55-.8c-1.11-1.62-3.87-2.62-10.91-3.98-1.9-.37-3.94-1.13-5.6-2.09-2.03-1.18-3.47-2.63-4.16-4.2-.54-1.23-.82-2.53-.82-3.87V1.32H13.23V3.38h4.18V1.32h11.9V3.38h4.18V1.32h11.9m1.32-1.32h-14.55V2.06h-1.53V0h-14.55V2.06h-1.53V0H0V45.9c0,1.53,.31,3.01,.93,4.41,.81,1.83,2.44,3.49,4.71,4.81,1.78,1.03,3.97,1.85,6.01,2.25,6.48,1.25,9.21,2.17,10.07,3.43l.55,.8,1.09,1.59,1.09-1.59,.55-.8c.86-1.25,3.59-2.18,10.07-3.43,2.04-.39,4.23-1.21,6.01-2.25,2.27-1.32,3.9-2.99,4.71-4.81,.62-1.4,.93-2.88,.93-4.41V0h0Z"/><polygon class="cls-2" points="34.16 1.99 34.16 4.05 28.65 4.05 28.65 1.99 18.08 1.99 18.08 4.05 12.56 4.05 12.56 1.99 1.99 1.99 1.99 4.05 1.99 11.87 44.73 11.87 44.73 4.05 44.73 1.99 34.16 1.99"/><g><path class="cls-1" d="M5.53,10l-1.59-3.86h.7l.92,2.2,.3,.86c.13-.39,.23-.67,.3-.86l.92-2.2h.71l-1.59,3.86h-.67Z"/><path class="cls-1" d="M10.78,9.99v-3.85h2.99v.59h-2.3v.94h2.17v.59h-2.17v1.13h2.38v.59h-3.07Z"/><path class="cls-1" d="M16.96,9.99v-3.85h1.62c.55,0,.97,.14,1.26,.41,.29,.28,.44,.63,.44,1.06,0,.26-.07,.51-.21,.74-.14,.23-.33,.4-.58,.52l.84,1.12h-.84l-.67-.93c-.12,0-.32,.01-.61,.01h-.56v.92h-.69Zm.69-1.51h.97c.29,0,.51-.08,.68-.25s.26-.37,.26-.62-.09-.46-.26-.62c-.17-.17-.4-.25-.68-.25h-.97v1.75Z"/><path class="cls-1" d="M23.48,9.99v-3.85h.69v3.85h-.69Z"/><path class="cls-1" d="M28.57,9.99v-3.26h-1.35v-.59h3.4v.59h-1.35v3.26h-.69Z"/><path class="cls-1" d="M32.78,9.99l1.73-3.85h.65l1.73,3.85h-.7l-.3-.67h-2.12l-.3,.67h-.7Zm1.25-1.21h1.63l-.44-.98c-.05-.11-.11-.25-.18-.4-.07-.15-.12-.28-.16-.37l-.05-.15c-.13,.36-.25,.66-.37,.92l-.44,.97Z"/><path class="cls-1" d="M39.69,9.5l.27-.52c.37,.3,.8,.45,1.28,.45,.22,0,.42-.05,.58-.15,.17-.1,.25-.23,.25-.4,0-.11-.04-.2-.13-.28-.09-.08-.18-.13-.27-.16-.09-.03-.22-.06-.39-.11s-.31-.09-.42-.12-.24-.08-.38-.15-.25-.14-.33-.21c-.08-.07-.15-.17-.21-.29-.06-.12-.09-.25-.09-.4,0-.34,.14-.61,.41-.8,.27-.19,.6-.29,.99-.29,.5,0,.96,.14,1.37,.42l-.27,.53c-.34-.21-.7-.32-1.1-.32-.1,0-.2,.01-.3,.04-.1,.03-.19,.08-.27,.15-.08,.07-.12,.16-.12,.27,0,.14,.06,.24,.19,.32,.13,.07,.33,.14,.61,.21,.2,.07,.38,.12,.53,.17,.15,.05,.3,.12,.45,.21,.15,.09,.26,.2,.34,.34,.08,.14,.12,.3,.12,.47,0,.38-.15,.67-.46,.87-.31,.2-.67,.3-1.09,.3-.63,0-1.14-.18-1.54-.55Z"/></g><g><g><path class="cls-3" d="M14.09,50.88c-.06,.37-.12,.68,.09,.99,.16-.14,.32-.28,.48-.42,.44,0,.5-.43,.75-.69-.12,.44-.2,.76,.12,1.12,.21-.17,.41-.34,.62-.52,.08,0,.19,0,.26-.03,.21-.09,.33-.24,.4-.46,.46-.15,.87-.13,1.28,.16,.14,.1,.2,.27,.25,.43,.5-.65,.16-1.39-.57-1.58-.74-.8,.74-2.67,1.26-3.33,0,.51-.16,.85-.41,1.27,.66-.27,1.1-.7,1.53-1.28,1.13,1.09,2.23,2.16,3.53,3.02,.85-.07,1.57,.1,2.19,.44-1.19-.03-2.52-.29-3.03,1.08-.16-.55-.02-.95,.3-1.38-.6-.41-1.76-.55-2.27-.23-.9,.55-1.12,1.64-.62,2.37,.17,.25,.36,.03,.54,.07-.12-.59-.04-1.15,.41-1.51,.22-.17,.59-.17,.59-.17-.15,.12-.28,.21-.37,.39-.2,.43-.25,.99,.16,1.31,.07,.06,.2,.05,.29,.05,3.09-.05,6.17-.03,9.26-.09,.15,0,.38,.05,.43-.15,.08-.29,.49-.64,.49-.65,1-.34,1.83-.62,2.37-1.64,1.15-4.13-4.17-5.94-.74-6.65-.06,.14-.2,.22-.24,.36,.83,.02,1.49-.48,1.26-1.4-.09-.38-.33-.74-.32-1.15,.66-1.55,1.66-.96,.4-2.99-.19-.35-.58,1.06-.98,1.31,.04-.26,.16-.45,.29-.67-.7,.37-1.45,.53-1.47,1.65-.02,1.17,1.48,2.15-.66,2.09-2.48,2.41,2.7,3.23,1.48,6.9-.23,.29-.55,.38-.91,.32-.26-.25-.1-.63-.15-.96-.43-2.61-1.56-4.65-3.91-5.78,1.26-.38,2.26-1.03,3.1-2.09-.98,.1-1.93,.09-2.91-.09,2-.11,3.76-.6,4.77-2.55-1.27,.1-2.43-.09-3.65-.44,3.76,.37,8.6-1.15,9.76-3.98-2.68,1.16-5.76,2.45-8.69,2.03,3.32-.46,8.38-1.91,9.9-5.86-1.56,1.35-4.45,3.03-8.45,3.23-.01,0,8.54-1.9,9.41-6.88-4.22,3.7-8.49,4.91-8.49,4.91,0,0,9.29-4.5,9.29-9.43-1.06,1.34-2.61,3.01-4.78,4.56-1.46,1.04-2.86,1.79-4.06,2.32,.96-.46,2.71-1.46,4.16-3.41,2.1-2.83,2.2-5.83,2.19-6.87-.97,2.28-2.63,5.08-5.54,7.21-.35,.26-.7,.49-1.05,.7,.63-.49,2.01-1.7,2.73-3.77,1.09-3.12-.15-5.83-.43-6.4,.02,1.12-.09,3.09-1.12,5.23-.59,1.23-1.3,2.14-1.89,2.78,.32-.71,.69-1.81,.71-3.18,.05-2.87-1.49-4.89-2.01-5.51,.29,1.41,.49,3.34,.18,5.56-.12,.88-.31,1.68-.51,2.38,0-.74-.1-1.77-.57-2.89-1.17-2.8-3.71-3.97-4.4-4.26,.65,1.17,1.31,2.58,1.84,4.24,.23,.72,.41,1.42,.56,2.07-.36-.63-1.2-1.86-2.75-2.78-1.96-1.16-3.86-1.11-4.57-1.06,2.84,1.43,4.41,3.29,5.15,4.32,2.09,2.9,3.89,7.85,1.89,11.95-.53,1.08-1.19,1.84-1.63,2.29-.08-.15-.16-.28-.25-.42-.08-.14-.15-.28-.23-.42,.13,.1,.25,.2,.38,.3,.18-1.1,.02-1.99-.53-2.95,.24,.16,.47,.31,.71,.48-.23-1.32-.92-2.14-1.88-2.98,.42,.06,.82,.2,1.23,.29-.86-1.41-2.19-1.69-3.7-1.83,.34-.21,.68-.42,1.02-.63-2.14-.18-5.69-.39-5.23,2.78-1.47,.43-2.36,1.52-1.14,2.85,0-.06-.06-.12-.01-.18,.53-.72,1.88-.58,2.67-.57,0,0,0-.01,0,.02,0,.07-.22,.24-.11,.34,.03,.03,.22,.26,.25,.41,.03,.14-.13,.46-.17,.51-2.16,2.53-3.7,6.47-3.32,9.82,.37-.54,.66-1.11,.95-1.69-.21,1.19-.39,2.36-.81,3.5,.46-.12,.78-.35,1.08-.74-1.08,3.05-4.65,4.69-4.56,5.76,.09-.09,.19-.19,.28-.28,.07,.02,.25,.04,.45-.03,.19-.07,.3-.18,.35-.24Zm4.73-19.28s-.03-.03-.05-.04c.26-.73,.66-.79,1.35-.78-.44,.27-.87,.55-1.31,.82Z"/><path class="cls-4" d="M18.83,31.61s-.03-.03-.05-.04c.26-.73,.66-.79,1.35-.78-.44,.27-.87,.55-1.31,.82Z"/></g><g><polygon class="cls-1" points="23.09 24.06 17.79 24.72 19.96 26.12 17.38 25.97 19.01 27.97 16.61 27.03 17.54 29.44 15.54 27.81 15.69 30.38 14.3 28.21 13.64 32.27 12.98 28.21 11.58 30.38 11.73 27.81 9.73 29.44 10.67 27.03 8.26 27.97 9.89 25.97 7.32 26.12 9.49 24.72 4.18 24.06 9.49 23.41 7.32 22.01 9.89 22.16 8.26 20.16 10.67 21.09 9.73 18.69 11.73 20.32 11.58 17.74 12.98 19.91 13.64 15.85 14.3 19.91 15.69 17.74 15.54 20.32 17.54 18.69 16.61 21.09 19.01 20.16 17.38 22.16 19.96 22.01 17.79 23.41 23.09 24.06"/><circle class="cls-4" cx="13.64" cy="24.06" r="2.06"/></g></g></g></g></g></svg>